<?xml version="1.0" encoding="utf-8"?>
<!-- Generator: Adobe Illustrator 16.0.0, SVG Export Plug-In . SVG Version: 6.00 Build 0)  -->
<!DOCTYPE svg PUBLIC "-//W3C//DTD SVG 1.1//EN" "http://www.w3.org/Graphics/SVG/1.1/DTD/svg11.dtd">
<svg version="1.1" id="Layer_1" xmlns="http://www.w3.org/2000/svg" xmlns:xlink="http://www.w3.org/1999/xlink" x="0px" y="0px"
	 width="50px" height="50px" viewBox="34.5 244.5 50 50" enable-background="new 34.5 244.5 50 50" xml:space="preserve">
<path d="M75.42,266.206l-0.068,0.123c-1.832,3.295-4.105,6.226-6.304,9.061c-1.565,2.019-3.184,4.106-4.582,6.26
	c-0.467,0.714-0.933,1.417-1.396,2.113c-0.958,1.444-1.863,2.809-2.723,4.203c-0.186,0.301-0.511,0.476-0.852,0.476
	c-0.091,0-0.183-0.013-0.272-0.038c-0.249-0.07-0.454-0.231-0.582-0.442c-0.893-1.451-1.831-2.871-2.824-4.375
	c-0.423-0.639-0.849-1.282-1.274-1.935c-1.392-2.133-2.995-4.201-4.547-6.201c-2.213-2.854-4.502-5.804-6.341-9.123l-0.06-0.106
	c-1.128-2.007-2.406-4.281-2.132-7.851c0.339-4.328,3.053-7.137,7.445-7.708c1.608-0.219,3.186-0.081,4.39,0.389
	c1.934,0.771,4.006,1.914,6.199,4.89c2.206-2.984,4.278-4.123,6.205-4.888c1.196-0.471,2.768-0.609,4.401-0.391
	c4.391,0.572,7.102,3.382,7.434,7.708C77.8,261.932,76.535,264.202,75.42,266.206z"/>
</svg>
